<svg xmlns:xlink="http://www.w3.org/1999/xlink" width="2.676ex" height="2.509ex" style="font-size: 15px; vertical-align: -0.671ex;" viewBox="0 -791.3 1152.4 1080.4" role="img" focusable="false" xmlns="http://www.w3.org/2000/svg">
<defs>
<path stroke-width="1" id="E1-MJMAIN-3A3" d="M666 247Q664 244 652 126T638 4V0H351Q131 0 95 0T57 5V6Q54 12 57 17L73 36Q89 54 121 90T182 159L305 299L56 644L55 658Q55 677 60 681Q63 683 351 683H638V679Q640 674 652 564T666 447V443H626V447Q618 505 604 543T559 605Q529 626 478 631T333 637H294H189L293 494Q314 465 345 422Q400 346 400 340Q400 338 399 337L154 57Q407 57 428 58Q476 60 508 68T551 83T575 103Q595 125 608 162T624 225L626 251H666V247Z"></path>
<path stroke-width="1" id="E1-MJMATHI-3B5" d="M190 -22Q124 -22 76 11T27 107Q27 174 97 232L107 239L99 248Q76 273 76 304Q76 364 144 408T290 452H302Q360 452 405 421Q428 405 428 392Q428 381 417 369T391 356Q382 356 371 365T338 383T283 392Q217 392 167 368T116 308Q116 289 133 272Q142 263 145 262T157 264Q188 278 238 278H243Q308 278 308 247Q308 206 223 206Q177 206 142 219L132 212Q68 169 68 112Q68 39 201 39Q253 39 286 49T328 72T345 94T362 105Q376 103 376 88Q376 79 365 62T334 26T275 -8T190 -22Z"></path>
</defs>
<g stroke="currentColor" fill="currentColor" stroke-width="0" transform="matrix(1 0 0 -1 0 0)">
 <use xlink:href="#E1-MJMAIN-3A3" x="0" y="0"></use>
 <use transform="scale(0.707)" xlink:href="#E1-MJMATHI-3B5" x="1021" y="-213"></use>
</g>
</svg>